<svg width="62" height="62" viewBox="0 0 62 62" fill="none" xmlns="http://www.w3.org/2000/svg">
<path fill-rule="evenodd" clip-rule="evenodd" d="M31 0C13.8792 0 0 13.8792 0 31C0 48.1208 13.8792 62 31 62C48.1208 62 62 48.1208 62 31C62 13.8792 48.1208 0 31 0ZM24.1845 14.5666C25.9481 14.4863 26.5116 14.4667 31.0018 14.4667H30.9966C35.4882 14.4667 36.0497 14.4863 37.8133 14.5666C39.5734 14.6472 40.7755 14.9258 41.8295 15.3347C42.918 15.7566 43.8377 16.3215 44.7573 17.2412C45.677 18.1602 46.2419 19.0826 46.6656 20.1701C47.072 21.2213 47.351 22.4227 47.4337 24.1829C47.5129 25.9464 47.5336 26.51 47.5336 31.0002C47.5336 35.4904 47.5129 36.0526 47.4337 37.8161C47.351 39.5756 47.072 40.7773 46.6656 41.8289C46.2419 42.916 45.677 43.8385 44.7573 44.7574C43.8387 45.6771 42.9176 46.2434 41.8306 46.6657C40.7786 47.0745 39.5758 47.3532 37.8157 47.4338C36.0521 47.5141 35.4903 47.5337 30.9997 47.5337C26.5099 47.5337 25.9467 47.5141 24.1831 47.4338C22.4233 47.3532 21.2215 47.0745 20.1696 46.6657C19.0829 46.2434 18.1604 45.6771 17.2418 44.7574C16.3225 43.8385 15.7576 42.916 15.3349 41.8286C14.9264 40.7773 14.6478 39.5759 14.5668 37.8158C14.4869 36.0522 14.4669 35.4904 14.4669 31.0002C14.4669 26.51 14.4876 25.9461 14.5665 24.1825C14.6457 22.4231 14.9247 21.2213 15.3346 20.1697C15.7583 19.0826 16.3231 18.1602 17.2428 17.2412C18.1618 16.3219 19.0842 15.757 20.1717 15.3347C21.2229 14.9258 22.4244 14.6472 24.1845 14.5666Z" fill="white"/>
<path fill-rule="evenodd" clip-rule="evenodd" d="M29.5191 17.446C29.8071 17.4456 30.1169 17.4457 30.4512 17.4459L31.0023 17.446C35.4167 17.446 35.9399 17.4619 37.6832 17.5411C39.2952 17.6148 40.1701 17.8842 40.7529 18.1105C41.5245 18.4101 42.0746 18.7684 42.6529 19.347C43.2316 19.9257 43.5898 20.4768 43.8901 21.2484C44.1164 21.8305 44.3861 22.7054 44.4595 24.3174C44.5387 26.0603 44.556 26.5839 44.556 30.9963C44.556 35.4086 44.5387 35.9322 44.4595 37.6751C44.3858 39.2871 44.1164 40.162 43.8901 40.7441C43.5905 41.5157 43.2316 42.0651 42.6529 42.6434C42.0742 43.2221 41.5248 43.5803 40.7529 43.88C40.1708 44.1073 39.2952 44.376 37.6832 44.4497C35.9403 44.5289 35.4167 44.5462 31.0023 44.5462C26.5875 44.5462 26.0643 44.5289 24.3214 44.4497C22.7093 44.3753 21.8344 44.106 21.2513 43.8797C20.4797 43.58 19.9286 43.2218 19.3499 42.6431C18.7713 42.0644 18.413 41.5147 18.1127 40.7428C17.8864 40.1607 17.6167 39.2858 17.5433 37.6737C17.4641 35.9308 17.4482 35.4073 17.4482 30.9921C17.4482 26.577 17.4641 26.0562 17.5433 24.3133C17.617 22.7013 17.8864 21.8264 18.1127 21.2436C18.4124 20.472 18.7713 19.9209 19.3499 19.3422C19.9286 18.7635 20.4797 18.4053 21.2513 18.105C21.8341 17.8776 22.7093 17.609 24.3214 17.5349C25.8466 17.466 26.4376 17.4453 29.5191 17.4419V17.446ZM39.8277 20.1913C38.7324 20.1913 37.8437 21.079 37.8437 22.1746C37.8437 23.27 38.7324 24.1587 39.8277 24.1587C40.9231 24.1587 41.8118 23.27 41.8118 22.1746C41.8118 21.0793 40.9231 20.1906 39.8277 20.1906V20.1913ZM22.5117 31C22.5117 26.3111 26.3134 22.5094 31.0024 22.5094H31.002C35.691 22.5094 39.4916 26.3111 39.4916 31C39.4916 35.689 35.6913 39.489 31.0024 39.489C26.3134 39.489 22.5117 35.689 22.5117 31Z" fill="white"/>
<path d="M31.0014 25.4888C34.0449 25.4888 36.5126 27.9561 36.5126 30.9999C36.5126 34.0435 34.0449 36.5111 31.0014 36.5111C27.9575 36.5111 25.4902 34.0435 25.4902 30.9999C25.4902 27.9561 27.9575 25.4888 31.0014 25.4888V25.4888Z" fill="white"/>
</svg>
