<svg width="62" height="62" viewBox="0 0 62 62" fill="none" xmlns="http://www.w3.org/2000/svg">
<path fill-rule="evenodd" clip-rule="evenodd" d="M31 0C13.8792 0 0 13.8792 0 31C0 48.1208 13.8792 62 31 62C48.1208 62 62 48.1208 62 31C62 13.8792 48.1208 0 31 0ZM24.1845 14.5666C25.9481 14.4863 26.5116 14.4667 31.0018 14.4667H30.9966C35.4882 14.4667 36.0497 14.4863 37.8133 14.5666C39.5734 14.6472 40.7755 14.9258 41.8295 15.3347C42.918 15.7566 43.8377 16.3215 44.7573 17.2412C45.677 18.1602 46.2419 19.0826 46.6656 20.1701C47.072 21.2213 47.351 22.4227 47.4337 24.1829C47.5129 25.9464 47.5336 26.51 47.5336 31.0002C47.5336 35.4904 47.5129 36.0526 47.4337 37.8161C47.351 39.5756 47.072 40.7773 46.6656 41.8289C46.2419 42.916 45.677 43.8385 44.7573 44.7574C43.8387 45.6771 42.9176 46.2434 41.8306 46.6657C40.7786 47.0745 39.5758 47.3532 37.8157 47.4338C36.0521 47.5141 35.4903 47.5337 30.9997 47.5337C26.5099 47.5337 25.9467 47.5141 24.1831 47.4338C22.4233 47.3532 21.2215 47.0745 20.1696 46.6657C19.0829 46.2434 18.1604 45.6771 17.2418 44.7574C16.3225 43.8385 15.7576 42.916 15.3349 41.8286C14.9264 40.7773 14.6478 39.5759 14.5668 37.8158C14.4869 36.0522 14.4669 35.4904 14.4669 31.0002C14.4669 26.51 14.4876 25.9461 14.5665 24.1825C14.6457 22.4231 14.9247 21.2213 15.3346 20.1697C15.7583 19.0826 16.3231 18.1602 17.2428 17.2412C18.1618 16.3219 19.0842 15.757 20.1717 15.3347C21.2229 14.9258 22.4244 14.6472 24.1845 14.5666Z" fill="#2B2A29"/>
<path fill-rule="evenodd" clip-rule="evenodd" d="M29.5191 17.4461C29.8071 17.4456 30.1169 17.4458 30.4512 17.4459L31.0023 17.4461C35.4167 17.4461 35.9399 17.4619 37.6832 17.5412C39.2952 17.6149 40.1701 17.8842 40.7529 18.1105C41.5245 18.4102 42.0746 18.7684 42.6529 19.3471C43.2316 19.9258 43.5898 20.4769 43.8901 21.2485C44.1164 21.8306 44.3861 22.7055 44.4595 24.3175C44.5387 26.0604 44.556 26.584 44.556 30.9963C44.556 35.4087 44.5387 35.9323 44.4595 37.6752C44.3858 39.2872 44.1164 40.1621 43.8901 40.7442C43.5905 41.5158 43.2316 42.0652 42.6529 42.6435C42.0742 43.2222 41.5248 43.5804 40.7529 43.8801C40.1708 44.1074 39.2952 44.3761 37.6832 44.4498C35.9403 44.529 35.4167 44.5462 31.0023 44.5462C26.5875 44.5462 26.0643 44.529 24.3214 44.4498C22.7093 44.3754 21.8344 44.106 21.2513 43.8797C20.4797 43.58 19.9286 43.2218 19.3499 42.6432C18.7713 42.0645 18.413 41.5147 18.1127 40.7428C17.8864 40.1607 17.6167 39.2858 17.5433 37.6738C17.4641 35.9309 17.4482 35.4073 17.4482 30.9922C17.4482 26.5771 17.4641 26.0563 17.5433 24.3133C17.617 22.7013 17.8864 21.8264 18.1127 21.2436C18.4124 20.4721 18.7713 19.9209 19.3499 19.3423C19.9286 18.7636 20.4797 18.4054 21.2513 18.105C21.8341 17.8777 22.7093 17.609 24.3214 17.535C25.8466 17.4661 26.4376 17.4454 29.5191 17.442V17.4461ZM39.8277 20.1914C38.7324 20.1914 37.8437 21.079 37.8437 22.1747C37.8437 23.2701 38.7324 24.1587 39.8277 24.1587C40.9231 24.1587 41.8118 23.2701 41.8118 22.1747C41.8118 21.0794 40.9231 20.1907 39.8277 20.1907V20.1914ZM22.5117 31.0001C22.5117 26.3111 26.3134 22.5094 31.0024 22.5094H31.002C35.691 22.5094 39.4916 26.3111 39.4916 31.0001C39.4916 35.6891 35.6913 39.489 31.0024 39.489C26.3134 39.489 22.5117 35.6891 22.5117 31.0001Z" fill="#2B2A29"/>
<path d="M31.0014 25.489C34.0449 25.489 36.5126 27.9562 36.5126 31.0001C36.5126 34.0437 34.0449 36.5113 31.0014 36.5113C27.9575 36.5113 25.4902 34.0437 25.4902 31.0001C25.4902 27.9562 27.9575 25.489 31.0014 25.489Z" fill="#2B2A29"/>
</svg>
