<svg width="62" height="62" viewBox="0 0 62 62" fill="none" xmlns="http://www.w3.org/2000/svg">
<path fill-rule="evenodd" clip-rule="evenodd" d="M0 31C0 48.1208 13.8792 62 31 62C48.1208 62 62 48.1208 62 31C62 13.8792 48.1208 0 31 0C13.8792 0 0 13.8792 0 31ZM50.4555 29.8136C50.4515 39.9748 42.1854 48.2428 32.0221 48.247H32.0144C28.9293 48.2459 25.8979 47.4719 23.2055 46.0033L13.4336 48.5667L16.0487 39.0146C14.4356 36.219 13.5868 33.0479 13.5881 29.7991C13.5922 19.6355 21.8615 11.3667 32.0219 11.3667C36.9531 11.3688 41.5814 13.2885 45.0616 16.7728C48.5419 20.257 50.4575 24.8883 50.4555 29.8136Z" fill="white"/>
<path fill-rule="evenodd" clip-rule="evenodd" d="M17.8592 44.1872L23.658 42.666L24.2175 42.9981C26.5698 44.394 29.2663 45.1326 32.0156 45.1337H32.0218C40.4664 45.1337 47.3395 38.2605 47.3429 29.8124C47.3445 25.7185 45.7523 21.8691 42.8597 18.9731C39.967 16.0771 36.1201 14.4814 32.0278 14.48C23.5767 14.48 16.7035 21.3525 16.7002 29.8C16.699 32.695 17.509 35.5144 19.0427 37.9537L19.407 38.5334L17.8592 44.1872ZM40.6777 33.7821C40.999 33.9374 41.2159 34.0422 41.3085 34.1968C41.4236 34.3889 41.4236 35.3111 41.04 36.3871C40.656 37.463 38.816 38.445 37.931 38.5771C37.1375 38.6958 36.1333 38.7453 35.03 38.3946C34.361 38.1824 33.5031 37.899 32.4042 37.4244C28.0862 35.5599 25.1682 31.3749 24.6167 30.5839C24.578 30.5285 24.551 30.4898 24.5359 30.4696L24.5322 30.4647C24.2885 30.1394 22.6552 27.9603 22.6552 25.705C22.6552 23.5834 23.6974 22.4713 24.1771 21.9594C24.21 21.9244 24.2402 21.8921 24.2673 21.8625C24.6895 21.4014 25.1885 21.2861 25.4955 21.2861C25.8025 21.2861 26.1099 21.289 26.3783 21.3025C26.4114 21.3041 26.4458 21.3039 26.4814 21.3037C26.7499 21.3021 27.0845 21.3002 27.4146 22.0931C27.5416 22.3983 27.7274 22.8506 27.9234 23.3278C28.3197 24.2927 28.7576 25.3588 28.8347 25.5131C28.9499 25.7436 29.0266 26.0125 28.8731 26.32C28.85 26.3661 28.8287 26.4097 28.8083 26.4512C28.693 26.6866 28.6082 26.8598 28.4125 27.0883C28.3355 27.1782 28.256 27.2751 28.1765 27.3719C28.018 27.5649 27.8596 27.7579 27.7216 27.8953C27.491 28.125 27.251 28.3742 27.5197 28.8353C27.7883 29.2964 28.7127 30.8046 30.082 32.026C31.5539 33.3389 32.8331 33.8938 33.4815 34.175C33.6082 34.2299 33.7107 34.2744 33.786 34.3121C34.2464 34.5427 34.5151 34.5041 34.7838 34.1968C35.0525 33.8894 35.9352 32.8519 36.2422 32.3908C36.5492 31.9299 36.8564 32.0067 37.2785 32.1603C37.7008 32.3142 39.9652 33.4283 40.4258 33.6588C40.5157 33.7038 40.5998 33.7445 40.6777 33.7821Z" fill="white"/>
</svg>
