<svg width="62" height="62" viewBox="0 0 62 62" fill="none" xmlns="http://www.w3.org/2000/svg">
<path fill-rule="evenodd" clip-rule="evenodd" d="M31 0C13.8792 0 0 13.8792 0 31C0 48.1208 13.8792 62 31 62C48.1208 62 62 48.1208 62 31C62 13.8792 48.1208 0 31 0ZM43.919 20.3429C45.3418 20.7333 46.4623 21.8837 46.8426 23.3446C47.5336 25.9923 47.5336 31.5167 47.5336 31.5167C47.5336 31.5167 47.5336 37.0409 46.8426 39.6888C46.4623 41.1497 45.3418 42.3 43.919 42.6907C41.3405 43.4 31.0003 43.4 31.0003 43.4C31.0003 43.4 20.66 43.4 18.0813 42.6907C16.6585 42.3 15.538 41.1497 15.1577 39.6888C14.4669 37.0409 14.4669 31.5167 14.4669 31.5167C14.4669 31.5167 14.4669 25.9923 15.1577 23.3446C15.538 21.8837 16.6585 20.7333 18.0813 20.3429C20.66 19.6333 31.0003 19.6333 31.0003 19.6333C31.0003 19.6333 41.3405 19.6333 43.919 20.3429Z" fill="white"/>
<path d="M27.8994 37.2V26.8667L36.1661 32.0336L27.8994 37.2Z" fill="white"/>
</svg>
